<!--?xml version="1.0" encoding="utf-8"?-->
<!-- Generator: Adobe Illustrator 24.1.1, SVG Export Plug-In . SVG Version: 6.00 Build 0)  -->
<svg version="1.1" id="Logo" xmlns="http://www.w3.org/2000/svg" xmlns:xlink="http://www.w3.org/1999/xlink" x="0px" y="0px" viewBox="0 0 468 202" style="" xml:space="preserve">
<style type="text/css">
	.st0{enable-background:new    ;}
	.st1{fill:none;stroke:#000000;stroke-miterlimit:10;}
</style>
<g id="newzin" class="st0">
	<path class="st1 RpSGYmts_0" d="M92.1,36c0.8-0.4,1.7-0.3,2.4,0.1c0.8,0.4,1.3,1.1,1.7,2c0.3,0.9,0.3,1.8,0,2.6c-0.7,1.4-1.4,3.1-2.3,4.9
		c-0.8,1.8-2.3,4.5-4.5,8.2c-2.1,3.7-4.3,6.9-6.4,9.6c-2.1,2.8-4.7,5.2-7.7,7.3c-3,2.1-5.9,3.2-8.7,3.2c-1.8,0-3.4-0.3-4.9-0.9
		c-1.5-0.6-2.7-1.3-3.8-2.1c-1.1-0.8-2.1-1.9-3-3.5c-0.9-1.6-1.7-2.9-2.3-4.1c-0.6-1.2-1.2-2.9-1.9-5c-0.6-2.2-1.1-3.8-1.3-5
		c-0.3-1.1-0.6-2.8-1.1-5.1c-1.9-8.6-3.5-13-4.9-13c-2.4,0.5-8.7,9.1-18.9,25.9c-3.8,6.2-6.7,10.8-8.6,13.7
		c-1.9,2.9-3.7,5.1-5.3,6.7c-1.6,1.6-3.1,2.3-4.5,2.3c-2.2,0-3.8-1.3-4.6-4c-0.4-1.3-0.7-3.2-0.7-5.6c0-7.4,1.7-18.2,5.2-32.4
		c1.5-6,2.9-10.9,4.2-14.8c1-3,2-5.1,3-6.4c1-1.3,2.1-1.9,3.5-1.9c1.5,0,2.5,0.7,3,2.2c0.3,1.2,0.4,2.9,0.1,5
		c-0.3,2.2-1,4.7-2.3,7.6c-1.2,2.9-2.7,5.3-4.4,7.2c-0.9,3.2-1.7,6.7-2.4,10.3C8.7,61.7,7.6,69.6,7.7,74.9c2-2.4,5.8-8.3,11.5-17.6
		c4.5-7.3,8-12.9,10.6-16.6c2.6-3.8,5.1-6.8,7.4-9.1c2.4-2.3,4.5-3.4,6.4-3.4c1.3,0,2.6,0.4,3.7,1.1c1.1,0.7,2,1.6,2.7,2.5
		c0.7,1,1.3,2.4,2,4.3c0.7,1.9,1.2,3.5,1.5,4.8c0.3,1.3,0.8,3.1,1.3,5.7c1.6,7.1,3.1,12.2,4.7,15.5c1.6,3.2,3.9,4.9,7.1,4.9
		c3.6,0,7.7-3.1,12.2-9.3c4.6-6.2,8.3-12.7,11.2-19.7C90.6,37,91.3,36.4,92.1,36z"></path>
	<path class="st1 RpSGYmts_1" d="M149.2,38.7c0.9-0.1,1.7,0.2,2.4,0.8c0.7,0.7,1,1.5,1.1,2.4c0.1,1-0.2,1.8-0.8,2.5c-0.9,1.1-2.1,2.5-3.5,4.1
		c-1.5,1.7-4.2,4.4-8.1,8.1c-3.9,3.7-7.8,7-11.6,9.8c-3.8,2.8-8.3,5.4-13.6,7.6c-5.2,2.3-10.1,3.4-14.8,3.4c-4.9,0-8.8-1.6-11.6-4.7
		c-2.8-3.1-4.2-7.4-4.2-13c0-9.1,3-18.5,8.9-28.3c3-5,6.3-8.9,9.8-11.7c3.5-2.8,6.9-4.1,10.1-4.1c3.4,0,6,1.1,7.8,3.2
		c1.7,1.9,2.5,4.4,2.5,7.4c0,5.2-1.9,10.3-5.8,15.5c-3.9,5.2-8.1,7.7-12.6,7.7c-4.5,0-7.9-2.2-10.3-6.5C92.3,49.4,91,54.9,91,60
		c0,3.5,0.7,6.1,2.2,7.9c1.5,1.8,3.8,2.7,7.1,2.7c2.9,0,6-0.6,9.4-1.7c3.3-1.1,6.4-2.5,9.2-4.2c2.8-1.7,5.7-3.7,8.7-6
		c3-2.3,5.5-4.5,7.7-6.5c2.1-2,4.2-4,6.2-6c2-2,3.3-3.5,4-4.3c0.7-0.8,1.2-1.4,1.5-1.8C147.5,39.3,148.3,38.9,149.2,38.7z
		 M113.3,22.9c-2.1,0-4.5,1.2-7.2,3.6c-2.6,2.4-5.1,5.5-7.5,9.4c0.4,0.4,0.7,0.8,0.8,1.3c1.2,3.7,3.1,5.6,5.7,5.6
		c1.7,0,3.5-0.9,5.3-2.8c1.9-1.9,3.4-4,4.6-6.6c1.2-2.5,1.9-4.8,1.9-6.8c0-1.2-0.3-2.1-0.8-2.7C115.7,23.2,114.7,22.9,113.3,22.9z"></path>
	<path class="st1 RpSGYmts_2" d="M201,79.6c-4.5,5.2-9.1,7.7-13.8,7.7c-6.9,0-12-3.9-15.5-11.7c-1.8-4.1-3-8.9-3.5-14.4
		c-8.3,9.8-15.7,14.8-22.3,14.8c-3.7,0-6-1.9-6.9-5.8c-1.3-5.3,0.9-14.4,6.7-27.4c5.5-12,9.3-18.7,11.5-20c1.6-1,3-0.8,4.2,0.5
		c1,1.1,1.4,2.8,1.2,5c-0.3,2.6-1.3,5.3-2.8,8.1c-1.5,2.8-3.6,4.9-6.2,6.5c-0.2,0.2-0.5,0.4-0.8,0.4c-0.9,1.9-1.7,3.7-2.5,5.4
		c-1.8,4.3-3.1,8.1-4,11.3c-0.9,3.2-1.3,5.4-1.2,6.4c0.1,1,0.2,1.8,0.3,2.4c0.1,0,0.3,0,0.5,0c2.9,0,6.5-1.9,10.6-5.6
		c4.2-3.7,7.9-8,11.3-13c0.7-10.4,3.3-15.7,7.8-15.7c1.3,0,2.5,0.5,3.4,1.6c0.7,0.8,1,1.9,1,3.2c0,3-1.9,7.4-5.6,13.1
		c-0.2,7.1,0.7,13.3,2.7,18.5c2.4,6,5.7,9,10.1,9c2.8,0,5.8-1.8,8.9-5.4c4.2-4.9,7.6-11.8,10.5-20.8c2.8-8.9,3.9-18,3.4-27.1
		c0-0.5,0-1,0-1.4c0-0.1,0-0.2,0-0.4v0.2c0-1.1,0.1-1.9,0.3-2.3c0.9-1.4,2.1-2,3.6-1.6c1.5,0.4,2.3,1.4,2.4,3.2
		c0.1,0.5,0.2,1,0.2,1.4c0.8,5.4,3,9.4,6.7,12.1c6.5,4.6,16.6,3.8,30.4-2.2c0.6-0.2,1.1-0.3,1.7-0.2c0.6,0.1,1.1,0.4,1.6,0.7
		s0.9,0.8,1.1,1.4c0.3,0.8,0.3,1.7,0,2.6c-0.3,0.9-1,1.5-1.9,1.9c-18.5,8.2-31.9,7.6-40.1-1.6c-0.9,7.6-2.7,14.8-5.3,21.7
		C208,69.5,204.8,75.2,201,79.6z"></path>
	<path class="st1 RpSGYmts_3" d="M341.9,36.4c0.8,0.4,1.5,1,1.9,1.9c0.4,0.9,0.4,1.8,0,2.7c-0.4,0.9-1,1.5-1.8,1.9c-11.1,5-24.6,13.8-40.3,26.3
		c0,0.1,0,0.4,0,0.7c0,9.1-1.4,19.6-4.3,31.4c-2.9,11.8-6.8,23.5-11.9,35.1c-5.1,11.6-10.7,22.3-16.9,32.2
		c-6.2,9.9-13.1,17.9-20.7,24c-7.5,6.1-14.8,9.2-21.9,9.2c-8.2,0-12.3-6.2-12.3-18.7c0-9.2,2.4-19.2,7.1-30
		c4.7-10.7,11.1-21.3,19.1-31.7c8-10.4,16.7-20.2,25.9-29.4c9.2-9.2,18.9-18,29-26.3c-0.3-3.5-1.1-6.5-2.4-9.2
		c-1.2-2.6-2.6-4.6-4-5.9c-1.5-1.3-2.9-1.9-4.4-1.9c-0.6,0-1.1,0.1-1.7,0.2c-3.9,5.8-7.1,9.6-9.6,11.5c-2.8,2.2-5.1,2.6-6.9,1.3
		c-1.8-1.3-2.3-3.4-1.3-6.1c0.4-1.7,1.3-3.4,2.5-5c1.2-1.7,2.9-3.3,5-4.8c2.1-1.5,4.4-2.6,6.8-3.3c3.7-5.8,6.7-11.4,9.1-16.9
		c2.4-5.5,3.1-9.5,2.4-12.1c-0.5-1.3-1.8-2-4-2c-3.7,0-7.7,2.2-12.1,6.5c-4.3,4.3-8.3,9.3-11.9,14.9c-1.5,5.5-2.8,9.3-4,11.3
		c-1.2,2-2.8,3.1-4.6,3.1c-1.3,0-2.4-0.6-3-1.8c-0.3-0.6-0.5-1.3-0.5-2c0-2.3,2-6.8,6.1-13.5c0.2-1,0.5-2,0.8-3.2
		c0.3-1.7,1.3-2.6,3-2.7c9.2-13.1,17.9-19.6,26.1-19.6c5.4,0,8.8,2.3,10.3,6.8c2,6.6-1.2,16.9-9.6,30.8c3.1,0.8,6,2.9,8.6,6.2
		c2.6,3.3,4.4,7.5,5.4,12.7c15.1-11.6,27.9-19.9,38.6-24.7C340.2,36,341,36,341.9,36.4z M272,149.4c6.4-12.4,11.7-25.3,15.9-38.7
		c4.2-13.4,6.5-25.5,7.1-36.2c-9.9,8.2-19.2,16.8-28,25.9c-15.1,15.6-26.6,30.5-34.7,44.7c-8,14.2-12.1,26.8-12.1,37.9
		c0,2.8,0.2,5,0.6,6.8c0.4,1.7,0.9,2.9,1.6,3.6c0.7,0.7,1.3,1,1.8,1.2c0.5,0.1,1.1,0.2,1.8,0.2c7,0,14.5-4,22.6-12.1
		C256.6,174.7,264.4,163.6,272,149.4z"></path>
	<path class="st1 RpSGYmts_4" d="M380.7,37.2c0.9-0.1,1.7,0.2,2.4,0.8c0.7,0.6,1.1,1.4,1.2,2.3c0.1,1-0.2,1.8-0.8,2.5c-3.7,4.8-7,8.8-9.9,12.1
		c-2.9,3.2-6.1,6.6-9.6,10.2c-3.5,3.5-6.9,6.2-10,8c-3.1,1.8-6.1,2.7-8.8,2.7c-3.9,0-6.9-1.6-8.8-4.7c-1.2-2.2-1.9-5.1-1.9-8.7
		c0-3.7,0.4-7.2,1.1-10.6c0.7-3.4,1.8-7.1,3.1-11.2c1.3-4,2.4-7.1,3.3-9.3c0.8-2.2,1.7-4.1,2.6-5.8c0.3-1,0.9-1.6,1.8-1.9
		c0.8-0.3,1.7-0.2,2.5,0.2c0.8,0.4,1.4,1.1,1.7,2c0.3,0.9,0.3,1.8-0.1,2.6c-3.4,7.3-6,14.9-8,22.9c-2,7.9-2.2,13.3-0.6,16
		c0.6,1,1.6,1.4,3.2,1.4c6.1,0,17.2-10.1,33.4-30.4C379.1,37.7,379.8,37.3,380.7,37.2z M353.8,16.8c-0.9,0-1.7-0.4-2.4-1.1
		c-1-1.2-1.6-2.5-1.9-3.8c-0.2-1.3-0.1-2.7,0.5-4.2c0.6-1.5,1.1-2.7,1.6-3.5c0.5-0.8,1.3-1.9,2.3-3.1c0.6-0.8,1.3-1.3,2.2-1.4
		c0.9-0.1,1.7,0.1,2.4,0.7c0.7,0.6,1.1,1.4,1.3,2.3c0.2,1,0,1.8-0.6,2.5H359c-2.3,3.2-3.1,5.1-2.7,5.6c0.6,0.7,0.8,1.6,0.8,2.5
		c0,1-0.3,1.8-1,2.5C355.4,16.5,354.7,16.8,353.8,16.8z"></path>
	<path class="st1 RpSGYmts_5" d="M463.6,36c0.8-0.4,1.7-0.3,2.4,0.1c0.8,0.4,1.3,1.1,1.7,2c0.3,0.9,0.3,1.8,0,2.6c-0.7,1.4-1.4,3.1-2.3,4.9
		c-0.8,1.8-2.3,4.5-4.5,8.2c-2.1,3.7-4.3,6.9-6.4,9.6c-2.1,2.8-4.7,5.2-7.7,7.3c-3,2.1-5.9,3.2-8.7,3.2c-1.8,0-3.4-0.3-4.9-0.9
		c-1.5-0.6-2.7-1.3-3.8-2.1c-1.1-0.8-2.1-1.9-3-3.5c-0.9-1.6-1.7-2.9-2.3-4.1c-0.6-1.2-1.2-2.9-1.9-5c-0.6-2.2-1.1-3.8-1.3-5
		c-0.3-1.1-0.6-2.8-1.1-5.1c-1.9-8.6-3.5-13-4.9-13c-2.4,0.5-8.7,9.1-18.9,25.9c-3.8,6.2-6.7,10.8-8.6,13.7
		c-1.9,2.9-3.7,5.1-5.3,6.7c-1.6,1.6-3.1,2.3-4.5,2.3c-2.2,0-3.8-1.3-4.6-4c-0.4-1.3-0.7-3.2-0.7-5.6c0-7.4,1.7-18.2,5.2-32.4
		c1.5-6,2.9-10.9,4.2-14.8c1-3,2-5.1,3-6.4c1-1.3,2.1-1.9,3.5-1.9c1.5,0,2.5,0.7,3,2.2c0.3,1.2,0.4,2.9,0.1,5
		c-0.3,2.2-1,4.7-2.3,7.6c-1.2,2.9-2.7,5.3-4.4,7.2c-0.9,3.2-1.7,6.7-2.4,10.3c-2.4,10.7-3.5,18.7-3.4,23.9c2-2.4,5.8-8.3,11.5-17.6
		c4.5-7.3,8-12.9,10.6-16.6c2.6-3.8,5.1-6.8,7.4-9.1c2.4-2.3,4.5-3.4,6.4-3.4c1.3,0,2.6,0.4,3.7,1.1c1.1,0.7,2,1.6,2.7,2.5
		c0.7,1,1.3,2.4,2,4.3c0.7,1.9,1.2,3.5,1.5,4.8c0.3,1.3,0.8,3.1,1.3,5.7c1.6,7.1,3.1,12.2,4.7,15.5c1.6,3.2,3.9,4.9,7.1,4.9
		c3.6,0,7.7-3.1,12.2-9.3c4.6-6.2,8.3-12.7,11.2-19.7C462.1,37,462.8,36.4,463.6,36z"></path>
</g>
<style data-made-with="vivus-instant">.RpSGYmts_0{stroke-dasharray:448 450;stroke-dashoffset:449;animation:RpSGYmts_draw_0 8200ms linear 0ms infinite,RpSGYmts_fade 8200ms linear 0ms infinite;}.RpSGYmts_1{stroke-dasharray:368 370;stroke-dashoffset:369;animation:RpSGYmts_draw_1 8200ms linear 0ms infinite,RpSGYmts_fade 8200ms linear 0ms infinite;}.RpSGYmts_2{stroke-dasharray:520 522;stroke-dashoffset:521;animation:RpSGYmts_draw_2 8200ms linear 0ms infinite,RpSGYmts_fade 8200ms linear 0ms infinite;}.RpSGYmts_3{stroke-dasharray:1029 1031;stroke-dashoffset:1030;animation:RpSGYmts_draw_3 8200ms linear 0ms infinite,RpSGYmts_fade 8200ms linear 0ms infinite;}.RpSGYmts_4{stroke-dasharray:266 268;stroke-dashoffset:267;animation:RpSGYmts_draw_4 8200ms linear 0ms infinite,RpSGYmts_fade 8200ms linear 0ms infinite;}.RpSGYmts_5{stroke-dasharray:448 450;stroke-dashoffset:449;animation:RpSGYmts_draw_5 8200ms linear 0ms infinite,RpSGYmts_fade 8200ms linear 0ms infinite;}@keyframes RpSGYmts_draw{100%{stroke-dashoffset:0;}}@keyframes RpSGYmts_fade{0%{stroke-opacity:1;}95.1219512195122%{stroke-opacity:1;}100%{stroke-opacity:0;}}@keyframes RpSGYmts_draw_0{9.75609756097561%{stroke-dashoffset: 449}42.27642276422765%{ stroke-dashoffset: 0;}100%{ stroke-dashoffset: 0;}}@keyframes RpSGYmts_draw_1{13.008130081300811%{stroke-dashoffset: 369}45.52845528455285%{ stroke-dashoffset: 0;}100%{ stroke-dashoffset: 0;}}@keyframes RpSGYmts_draw_2{16.260162601626014%{stroke-dashoffset: 521}48.78048780487805%{ stroke-dashoffset: 0;}100%{ stroke-dashoffset: 0;}}@keyframes RpSGYmts_draw_3{19.51219512195122%{stroke-dashoffset: 1030}52.03252032520326%{ stroke-dashoffset: 0;}100%{ stroke-dashoffset: 0;}}@keyframes RpSGYmts_draw_4{22.76422764227642%{stroke-dashoffset: 267}55.28455284552847%{ stroke-dashoffset: 0;}100%{ stroke-dashoffset: 0;}}@keyframes RpSGYmts_draw_5{26.016260162601622%{stroke-dashoffset: 449}58.536585365853654%{ stroke-dashoffset: 0;}100%{ stroke-dashoffset: 0;}}</style></svg>
